<svg width="16" height="16" viewBox="0 0 16 16" fill="none" xmlns="http://www.w3.org/2000/svg">
<path d="M8.49386 12.2691L10.0062 10.7567C10.3489 10.414 10.8879 10.3664 11.2854 10.6436L13.2963 12.0461C13.703 12.3298 13.7545 12.9121 13.4039 13.2628V13.2628C12.838 13.8286 12.0255 14.0743 11.2673 13.8186C9.85791 13.3433 7.48826 12.3157 5.50783 10.3353C3.52739 8.35488 2.49985 5.98523 2.02454 4.57588C1.76882 3.81766 2.01452 3.00509 2.58034 2.43927V2.43927C2.93099 2.08862 3.51337 2.14012 3.79705 2.54686L5.19954 4.55776C5.47676 4.95523 5.42909 5.49426 5.08644 5.83692L3.57408 7.34928" stroke="#F1E748" stroke-linecap="round"/>
</svg>
