<svg width="26" height="26" viewBox="0 0 26 26" fill="none" xmlns="http://www.w3.org/2000/svg">
<rect x="7" y="6" width="14" height="13" fill="black"/>
<path d="M13 0C5.8203 0 0 5.8203 0 13C0 20.1797 5.8203 26 13 26C20.1797 26 26 20.1797 26 13C25.9924 5.82351 20.1765 0.00767161 13 0ZM18.4748 13.4142C18.3848 13.5947 18.2385 13.7411 18.0579 13.8311V13.8357L10.6294 17.55C10.1706 17.7792 9.6129 17.5932 9.38363 17.1345C9.31845 17.004 9.28487 16.8601 9.28569 16.7143V9.28575C9.28547 8.77289 9.70099 8.35699 10.2138 8.35672C10.3581 8.35666 10.5004 8.39018 10.6294 8.45465L18.0579 12.169C18.5169 12.3977 18.7036 12.9552 18.4748 13.4142Z" fill="#F1E748"/>
</svg>
